# xmcd
#
# Track frame offsets: 
#        150
#        19180
#        42292
#        58225
#        77727
#        95072
#        119452
#        139292
#        159190
#        179340
#        199597
#        220625
#
# Disc length: 3241 seconds
#
# Revision: 0
# Processed by: cddbd v1.5.2PL0 Copyright (c) Steve Scherf et al.
# Submitted via: ExactAudioCopy v0.99pb3
#
DISCID=a50ca70c
DTITLE=Artie White - The Best Of Artie White
DYEAR=1991
DGENRE=Blues
TTITLE0=Today I Started Loving You Again
TTITLE1=Nothing Takes The Place Of You
TTITLE2=Tore Up
TTITLE3=Tired Of Sneaking Around
TTITLE4=Jodie
TTITLE5=Dark End Of The Street
TTITLE6=That's Where It's At
TTITLE7=Nobody Wants You When You're Old And Gray
TTITLE8=Funny How Time Slips Away
TTITLE9=Hattie Mae
TTITLE10=Things Got To Change
TTITLE11=I Need Someone
EXTD=
EXTT0=
EXTT1=
EXTT2=
EXTT3=
EXTT4=
EXTT5=
EXTT6=
EXTT7=
EXTT8=
EXTT9=
EXTT10=
EXTT11=
PLAYORDER=
